<?xml version="1.0" standalone="no"?>
<!DOCTYPE svg PUBLIC "-//W3C//DTD SVG 20010904//EN"
 "http://www.w3.org/TR/2001/REC-SVG-20010904/DTD/svg10.dtd">
<svg version="1.0" xmlns="http://www.w3.org/2000/svg"
 width="192.000000pt" height="192.000000pt" viewBox="0 0 192.000000 192.000000"
 preserveAspectRatio="xMidYMid meet">
<metadata>
Created by potrace 1.14, written by Peter Selinger 2001-2017
</metadata>
<g transform="translate(0.000000,192.000000) scale(0.100000,-0.100000)"
fill="#000000" stroke="none">
<path d="M166 1583 c-3 -10 -8 -36 -10 -58 -3 -22 -8 -58 -11 -80 -2 -22 -7
-64 -11 -93 -3 -29 -7 -62 -9 -73 -4 -17 29 -88 103 -219 13 -25 49 -90 80
-145 30 -55 64 -118 77 -140 30 -54 66 -119 102 -185 90 -162 171 -308 183
-327 15 -23 35 -24 110 -7 35 8 136 26 165 29 56 7 94 19 99 32 4 9 9 44 12
77 3 34 7 66 9 73 2 7 7 52 11 100 4 48 8 91 10 94 2 4 25 10 51 14 27 3 91
15 143 25 52 11 106 21 120 24 50 9 87 18 170 44 68 22 93 35 128 69 23 24 41
46 40 50 -1 7 8 79 17 133 1 8 6 42 10 75 16 130 14 138 -26 106 -69 -53 -190
-91 -439 -135 -80 -14 -157 -28 -172 -31 -16 -3 -40 -7 -55 -10 -16 -3 -56
-10 -90 -16 -35 -6 -63 -15 -63 -20 0 -4 10 -25 21 -46 50 -87 139 -261 139
-270 0 -5 -10 -9 -22 -10 -13 0 -36 -3 -53 -6 -16 -3 -59 -11 -95 -17 -36 -5
-78 -13 -95 -16 -16 -4 -43 -7 -59 -8 -32 -1 -37 5 -120 159 -21 39 -42 75
-46 80 -4 6 -29 51 -55 100 -26 50 -65 120 -86 157 -22 36 -39 69 -39 73 0 3
-16 30 -35 60 -19 30 -32 55 -29 55 3 0 -3 12 -13 28 -10 15 -25 41 -33 57 -8
17 -17 32 -20 35 -3 3 -18 30 -35 60 -16 30 -39 70 -51 88 -19 27 -23 30 -28
15z"/>
<path d="M1127 1564 c-2 -2 -25 -6 -52 -9 -26 -4 -71 -11 -99 -16 -28 -5 -67
-12 -86 -15 -60 -9 -213 -44 -226 -52 -9 -5 6 -39 52 -122 71 -128 58 -120
174 -100 36 6 76 13 90 15 14 2 50 9 80 15 30 6 71 13 90 15 79 9 175 39 198
62 28 29 25 55 -16 122 -40 65 -70 84 -141 86 -33 2 -62 1 -64 -1z"/>
</g>
</svg>
